<?xml version="1.0" encoding="UTF-8"?>
<svg xmlns="http://www.w3.org/2000/svg" version="1.1" viewBox="0 0 825.5 506.3">
  <defs>
    <style>
      .cls-1, .cls-2 {
        stroke: #badd7f;
        stroke-width: 16.5px;
      }

      .cls-1, .cls-2, .cls-3 {
        stroke-linecap: round;
      }

      .cls-1, .cls-2, .cls-4 {
        fill: none;
      }

      .cls-1, .cls-3 {
        stroke-linejoin: round;
      }

      .cls-2 {
        stroke-miterlimit: 10;
      }

      .cls-3 {
        stroke-width: 5.2px;
      }

      .cls-3, .cls-4 {
        stroke: #046e8f;
      }

      .cls-3, .cls-5 {
        fill: #046e8f;
      }

      .cls-4 {
        stroke-miterlimit: 10;
        stroke-width: 12.1px;
      }
    </style>
  </defs>
  <!-- Generator: Adobe Illustrator 28.7.1, SVG Export Plug-In . SVG Version: 1.2.0 Build 142)  -->
  <g>
    <g id="Layer_1">
      <g>
        <path class="cls-5" d="M338.1,406.6c-2.8,3.6-6.4,5.5-10.5,6.7-3.4.9-8.3,2.2-11.7,2.9-15.7,3.7-31.7,6.2-47.9,6.9-64.6,3.7-116.5-27.8-125.3-95-5-40.9,6-83,29.4-116.8,8.8-13.3,18.6-26.4,29.2-38.4,30.6-34.8,73.8-66.3,122.5-61.8,20.9,2.3,45.8,12.3,53.7,33.5,16.1,43.2-31.4,95.6-61.7,121.8-5.1,4.2-9.9,8.5-16.1,11.4-.9.4-2.4.8-3.4.8-5.1.2-8.7-2.1-10.2-4.4-1.8-2.9-1.9-6.2-.7-9,3.5-7.3,7.1-14.5,10.8-21.6,18.7-35.7,40.8-69.8,67.3-100.3,5.3-6.1,10.7-12.1,16.3-17.9,2.8-2.9,5.6-5.8,8.5-8.6,3-3.3,6.9-5.7,11.7-5.4,3.9.4,3.7,4.5,3,7.3-.7,3.1-2.5,5.6-4.8,7.8-2.7,2.9-5.3,5.8-8,8.7-36.6,41-69.1,86.1-92.9,135.8l.5-1.4c.1-.7,0-1.6-.6-2.6l-.9-1.1c1.3,1.5,0,0,.3.3-.3-.3-.7-.7-1.1-.8-.2,0-.2,0-.2,0,0,0,.2,0,.4,0,0,0,.4,0,0,0-.3,0-.8,0-1.1.2.1,0,.9-.5,1.6-.9,29.1-20.2,87.7-82,66.7-119.5-4.9-8.4-15.2-14-24.7-17.2-10.3-3.5-21.4-4.4-32.1-3.3-43.7,4.8-79.2,37.5-105.4,70.8-5.9,7.6-11.6,15.5-16.9,23.5-4.1,6.2-8.4,12.9-11.6,19.6-22.2,44.8-26.3,109.3,12.3,146.3,31.1,29,77.8,28.8,117.4,21.5,7.5-1.4,15.2-3.2,22.6-5.1,4.1-1,8-1.3,12.3.3,2,.7,2.7,3.3,1.4,5h0Z"/>
        <ellipse class="cls-4" cx="329.6" cy="310.7" rx="27.5" ry="9.9" transform="translate(-117.9 240.9) rotate(-34.5)"/>
        <path class="cls-5" d="M208.7,335.6c5.4-1.8,10.3-1.6,15.2-1.3,5,.2,10-.2,15-.7,15-1.8,29.8-6.5,43.5-12.8,14.1-6.5,27.1-14.7,39.8-23.7,2.5-1.8,6-1.2,7.7,1.3,1.7,2.3,1.2,5.5-.9,7.4-8.2,7.2-17.1,13.6-26.5,19.3-23.7,14.3-51.3,23.5-79.3,21.5-4.3-.2-8.7-1-12.4-3.2-1.3-.8-2.5-1.7-3.8-3-1.5-1.7-.6-4.3,1.6-4.7h0Z"/>
        <path class="cls-5" d="M437.7,304.8c1.6-.1,3.3.2,4.6,1,1,.6,1.6,1.6,2.3,2.4,1.4,1.7,2.9,3.3,4.4,4.9,3.6,3.6,7.6,7,12.3,8.9,6.4,2.3,13.4,2.2,19.9.2,8.2-2.4,16.2-6.6,23.5-11.3,7.7-5,14.9-10.6,23.4-14.6,1.6-.9,3.5.9,2.9,2.6-3.6,9.6-11.1,16.6-19.2,22.4-12.1,8.6-27.4,17.1-43.2,15.3-11.5-1.1-20.5-7.4-27.6-15.9-1.6-1.9-3.2-3.9-4.6-5.9-.7-1-1.6-2-1.9-3.3-.3-1-.2-2.4.1-3.4.1-.4.3-.9.6-1.5.5-1.1,1.5-1.6,2.6-1.6h0Z"/>
        <path class="cls-5" d="M460.6,322c10.2,1.2,20.3-3.7,26.9-11.3,3-3.6,5.6-7.9,5.8-12.3,0-1.2-.2-1.9-.5-2.3-.3-.4-.7-.7-1.7-1.1h-.3c0-.1-.5-.2-.5-.2-.5-.1-1.4-.2-2-.2-.2,0-.3,0-.5,0h-.6c-6.9.2-11.7,4.9-16.8,9.5-2.8,2.6-5.6,5.6-9,8.5-3.5,2.9-6.6,5.1-10.2,7.6-10.5,7.1-22.2,14-35.2,15.9-15.6,2.5-29-5.5-34.1-20.6v-.3c-.1,0-.1,0-.1,0,.2.4.1.3.5.9-3-1.1,6.3,6.5,10.6-1.3l.2-.6c-.9,4-1.7,8.1-1.8,11.5,0,1,.1,2.6.4,3.2-.1-.2-.7-.6-1-.7-.3,0,0,0,.6,0,9.7-2.5,21.1-12.5,27-20.5,1.7-2.5,5.6-8.3,2.8-10.6,0,0,0,0,0,0,0,0,.2.1.3.2.1,0-.2,0-.7,0-2.9.4-6.8,2.4-9.7,4.1-14.9,8.6-28.7,19.9-44.6,27.7-6.4,3.1-13.5,6-21,6.3-3.2.1-6.8-.3-10-1.6-5.5-2.8-4.2-9.1-2-13.4,3.1-6.4,6.8-11.9,10.8-17.6l9.9,7c-3.8,5.6-8.1,11.6-10.5,17.8,0,0,0,.1,0,0,0,0,0-.3,0-1-.3-1.7-1.6-3.2-3.2-3.9,5.5,1.9,14.6-1.4,20.7-4.5,15.4-7.7,28.8-18.6,44-27.4,6.7-3.6,15.7-8.7,23.3-3.4,2.2,1.7,3.9,3.9,4.9,6.6,3.9,12-6.9,23.8-14.7,31.3-9.2,8.6-34.3,26.2-38.9,4.6-.9-6.6.5-12.9,2-19.1,4.4-7.9,13.7-.2,10.7-1.3.4.7.4.6.6,1.2,1,3,2.5,6.1,4.7,8.5,13.3,14.2,39.2-3.1,51.6-12.2,10.3-7.2,17.3-18.8,30-23.1,4.6-1.5,9.8-1.7,14.6-.6,7.2,1.9,11.8,7.8,11.6,15.3-.7,16.6-16.7,30.9-32,34.6-4.6,1.1-9.4,1.5-14.1,1l1.3-12.1h0Z"/>
      </g>
      <g>
        <path class="cls-1" d="M599.6,223.3s-21.5,118.2-11.7,123.1"/>
        <g>
          <path class="cls-2" d="M592.9,343.3c98.6,5.7,129.5-172.3,8.4-99"/>
          <line class="cls-1" x1="572.8" y1="231.5" x2="550.8" y2="357.5"/>
        </g>
      </g>
      <path class="cls-3" d="M633.8,269.9s-8.5-8.6-11.4-6.6c-2.4,1.6.2,12.8.2,12.8,0,0-10,5-9.6,7.9.4,3.2,11.4,4,11.4,4,0,0,0,11.7,3.5,12.2,3.8.6,6.7-12.9,6.7-12.9,0,0,13,5,14.8,2.1,1.8-2.8-7.6-10.9-7.6-10.9,0,0,7.2-9.7,5-12.1-2.3-2.5-13.1,3.7-13.1,3.7h0Z"/>
    </g>
  </g>
</svg>