<?xml version="1.0" encoding="UTF-8"?>
<svg id="Layer_1" xmlns="http://www.w3.org/2000/svg" viewBox="0 0 1203 1041">
  <defs>
    <style>
      .cls-1, .cls-2 {
        fill: #046e8f;
      }

      .cls-2 {
        stroke-width: 5.242px;
      }

      .cls-2, .cls-3, .cls-4 {
        stroke-linecap: round;
      }

      .cls-2, .cls-4 {
        stroke-linejoin: round;
      }

      .cls-2, .cls-5 {
        stroke: #046e8f;
      }

      .cls-3, .cls-4 {
        stroke: #badd7f;
        stroke-width: 16.524px;
      }

      .cls-3, .cls-4, .cls-5 {
        fill: none;
      }

      .cls-3, .cls-5 {
        stroke-miterlimit: 10;
      }

      .cls-5 {
        stroke-width: 12.132px;
      }
    </style>
  </defs>
  <g>
    <path class="cls-1" d="M492.483,618.899c-2.793,3.635-6.409,5.527-10.547,6.653-3.42.921-8.256,2.152-11.67,2.917-15.722,3.669-31.688,6.218-47.862,6.945-64.649,3.658-116.502-27.787-125.335-95.02-5.043-40.916,6.048-83.032,29.382-116.838,8.808-13.316,18.556-26.403,29.161-38.367,30.615-34.761,73.839-66.327,122.465-61.802,20.923,2.251,45.761,12.323,53.745,33.456,16.083,43.203-31.426,95.619-61.706,121.845-5.141,4.168-9.882,8.464-16.11,11.444-.939.429-2.377.751-3.42.771-5.074.216-8.712-2.082-10.221-4.419-1.825-2.922-1.882-6.198-.708-9.007,3.458-7.282,7.058-14.497,10.819-21.628,18.734-35.703,40.843-69.798,67.307-100.285,5.275-6.11,10.711-12.08,16.325-17.879,2.801-2.904,5.621-5.789,8.486-8.627,3.007-3.342,6.946-5.661,11.692-5.374,3.878.418,3.729,4.452,3.012,7.265-.705,3.142-2.548,5.571-4.756,7.759-2.693,2.866-5.339,5.776-7.965,8.702-36.594,41.025-69.136,86.09-92.866,135.821,0,0,.493-1.43.493-1.43.105-.727-.016-1.624-.65-2.614,0,0-.868-1.07-.868-1.07,1.26,1.455.051.025.273.303-.294-.319-.745-.68-1.075-.813-.208-.089-.246-.084-.2-.081.038.011.179.024.37.023.082-.009.383.001-.029.004-.311.047-.847.094-1.107.225.148-.053.93-.476,1.584-.9,29.052-20.236,87.687-82.035,66.709-119.485-4.897-8.373-15.22-14.029-24.697-17.184-10.268-3.495-21.362-4.421-32.142-3.31-43.672,4.818-79.208,37.539-105.405,70.805-5.912,7.567-11.638,15.519-16.921,23.526-4.076,6.242-8.407,12.861-11.644,19.574-22.205,44.814-26.27,109.334,12.344,146.327,31.14,29.035,77.842,28.765,117.395,21.497,7.48-1.379,15.232-3.172,22.619-5.086,4.109-1.03,8.021-1.305,12.284.32,2.002.746,2.736,3.349,1.439,5.038h0Z"/>
    <ellipse class="cls-5" cx="483.889" cy="522.91" rx="27.538" ry="9.926" transform="translate(-210.95 365.487) rotate(-34.454)"/>
    <path class="cls-1" d="M363.002,547.858c5.425-1.846,10.262-1.597,15.223-1.323,4.963.156,9.972-.155,14.951-.722,14.995-1.804,29.758-6.452,43.509-12.849,14.068-6.475,27.129-14.667,39.799-23.688,2.5-1.775,5.966-1.187,7.741,1.313,1.659,2.336,1.234,5.534-.868,7.389-8.177,7.166-17.06,13.588-26.459,19.259-23.719,14.256-51.333,23.464-79.311,21.541-4.276-.223-8.665-.964-12.446-3.226-1.32-.785-2.515-1.659-3.75-2.989-1.529-1.663-.561-4.261,1.611-4.707h0Z"/>
    <path class="cls-1" d="M592.017,517.06c1.579-.117,3.326.18,4.603.954,1.041.62,1.578,1.594,2.325,2.419,1.422,1.698,2.904,3.339,4.444,4.877,3.624,3.576,7.611,6.988,12.266,8.876,6.391,2.302,13.374,2.163,19.902.199,8.172-2.447,16.195-6.638,23.511-11.289,7.692-5.042,14.945-10.634,23.376-14.624,1.589-.86,3.539.89,2.855,2.556-3.611,9.604-11.092,16.57-19.186,22.368-12.097,8.604-27.436,17.091-43.241,15.331-11.548-1.07-20.542-7.4-27.635-15.94-1.648-1.928-3.178-3.915-4.629-5.949-.689-1.042-1.551-1.962-1.867-3.267-.278-.994-.201-2.369.109-3.444.115-.448.31-.928.563-1.472.486-1.052,1.523-1.592,2.603-1.597h0Z"/>
    <path class="cls-1" d="M614.98,534.27c10.15,1.197,20.316-3.656,26.909-11.291,3.025-3.605,5.617-7.865,5.833-12.312.026-1.157-.22-1.924-.492-2.317-.258-.394-.708-.747-1.722-1.07l-.35-.137-.454-.07c-.483-.126-1.447-.215-1.98-.218-.179-.009-.349-.032-.535-.033l-.586.035c-6.854.177-11.72,4.817-16.781,9.466-2.801,2.649-5.591,5.587-8.96,8.527-3.497,2.897-6.571,5.084-10.161,7.606-10.479,7.131-22.154,13.957-35.209,15.944-15.629,2.476-28.983-5.54-34.142-20.624,0,0-.114-.317-.114-.317-.011-.03-.026-.068-.002-.008.188.429.116.301.489.924-2.976-1.063,6.252,6.549,10.638-1.313l.167-.563c-.946,3.975-1.737,8.065-1.785,11.518-.076,1.041.132,2.608.385,3.213-.109-.216-.702-.628-1.032-.695-.326-.076.052.03.629-.091,9.67-2.472,21.104-12.498,26.98-20.48,1.723-2.507,5.569-8.347,2.825-10.599-.043-.041-.097-.092-.05-.041.092.085.24.127.269.153.113.028-.165-.048-.691.017-2.934.39-6.806,2.437-9.719,4.069-14.875,8.646-28.738,19.856-44.606,27.739-6.383,3.109-13.532,6.011-21.026,6.337-3.156.138-6.808-.256-9.974-1.589-5.533-2.81-4.225-9.084-2.002-13.419,3.095-6.359,6.826-11.862,10.766-17.606,0,0,9.904,7.006,9.904,7.006-3.752,5.587-8.109,11.585-10.511,17.772-.03.1-.022.114-.018.054.004-.099.067-.299-.033-.985-.256-1.669-1.559-3.245-3.171-3.879,5.465,1.92,14.596-1.439,20.713-4.538,15.382-7.667,28.784-18.589,44.033-27.394,6.672-3.584,15.724-8.651,23.296-3.374,2.238,1.704,3.947,3.91,4.944,6.615,3.941,11.979-6.878,23.845-14.743,31.261-9.167,8.571-34.323,26.224-38.881,4.602-.859-6.582.505-12.864,2.023-19.062,4.402-7.907,13.666-.248,10.702-1.29.402.686.382.646.607,1.181,1.035,3.048,2.541,6.115,4.703,8.469,13.324,14.222,39.166-3.148,51.574-12.235,10.259-7.216,17.313-18.829,29.987-23.099,4.643-1.499,9.784-1.721,14.551-.629,7.222,1.875,11.751,7.778,11.596,15.266-.746,16.566-16.713,30.885-32.014,34.616-4.573,1.138-9.385,1.45-14.075.952l1.301-12.062h0Z"/>
  </g>
  <g>
    <path class="cls-4" d="M753.982,435.516s-21.505,118.152-11.703,123.053"/>
    <g>
      <path class="cls-3" d="M747.278,555.569c98.643,5.685,129.488-172.292,8.36-98.978"/>
      <line class="cls-4" x1="727.123" y1="443.745" x2="705.091" y2="569.797"/>
    </g>
  </g>
  <path class="cls-2" d="M788.179,482.185s-8.528-8.566-11.391-6.619c-2.366,1.609.186,12.782.186,12.782,0,0-9.957,4.969-9.559,7.875.437,3.193,11.445,3.972,11.445,3.972,0,0,.039,11.665,3.478,12.179,3.833.574,6.676-12.933,6.676-12.933,0,0,12.961,5.025,14.846,2.101,1.802-2.795-7.613-10.912-7.613-10.912,0,0,7.188-9.667,5.011-12.118-2.255-2.539-13.08,3.671-13.08,3.671Z"/>
</svg>