<?xml version="1.0" encoding="UTF-8"?>
<svg id="Layer_1" xmlns="http://www.w3.org/2000/svg" viewBox="0 0 1203 1041">
  <defs>
    <style>
      .cls-1, .cls-2, .cls-3 {
        stroke: #000;
      }

      .cls-1, .cls-2, .cls-3, .cls-4, .cls-5, .cls-6, .cls-7, .cls-8, .cls-9 {
        stroke-linecap: round;
      }

      .cls-1, .cls-2, .cls-3, .cls-7, .cls-8 {
        stroke-width: 14.484px;
      }

      .cls-1, .cls-3, .cls-4, .cls-7, .cls-10 {
        stroke-miterlimit: 10;
      }

      .cls-1, .cls-11 {
        fill: #fff;
      }

      .cls-2, .cls-3, .cls-4, .cls-5, .cls-12, .cls-7, .cls-8, .cls-9, .cls-10 {
        fill: none;
      }

      .cls-2, .cls-5, .cls-6, .cls-8 {
        stroke-linejoin: round;
      }

      .cls-13 {
        fill: #046e8f;
      }

      .cls-4, .cls-12, .cls-9 {
        stroke: #fff;
      }

      .cls-4, .cls-9 {
        stroke-width: 38.672px;
      }

      .cls-5 {
        stroke-width: 56.685px;
      }

      .cls-5, .cls-6 {
        stroke: #badd7f;
      }

      .cls-6 {
        fill: #badd7f;
        stroke-width: 4.595px;
      }

      .cls-12 {
        stroke-width: 120.85px;
      }

      .cls-7, .cls-8, .cls-10 {
        stroke: #046e8f;
      }

      .cls-10 {
        stroke-width: 10.635px;
      }
    </style>
  </defs>
  <g>
    <path class="cls-11" d="M823.299,543.189l-59.574-4.269v-101.826l53.351,12.973c32.525-48.4,73.991-140.341,51.436-166.787-35.43-41.542-211.405,54.803-211.405,54.803,0,0-134.316-140.425-180.963-110.042-21.52,14.017-19.025,83.57-12.918,135.98l89.932,21.869h-35.726l-45.681,54.866-104.721,69.736c-30.65,21.631-61.688,44.43-59.482,63.348,5.998,51.458,182.682,67.517,182.682,67.517,0,0-3.797,164.299,51.308,173.677,61.427,10.454,112.147-182.529,112.147-182.529,0,0,206.7,84.928,237.935,38.549,18.579-27.587-27.476-84.884-68.319-127.866Z"/>
    <path class="cls-12" d="M823.299,543.189l-59.574-4.269v-101.826l53.351,12.973c32.525-48.4,73.991-140.341,51.436-166.787-35.43-41.542-211.405,54.803-211.405,54.803,0,0-134.316-140.425-180.963-110.042-21.52,14.017-19.025,83.57-12.918,135.98l89.932,21.869h-35.726l-45.681,54.866-104.721,69.736c-30.65,21.631-61.688,44.43-59.482,63.348,5.998,51.458,182.682,67.517,182.682,67.517,0,0-3.797,164.299,51.308,173.677,61.427,10.454,112.147-182.529,112.147-182.529,0,0,206.7,84.928,237.935,38.549,18.579-27.587-27.476-84.884-68.319-127.866Z"/>
  </g>
  <g>
    <path class="cls-5" d="M816.779,451.885c32.525-48.4,73.991-140.341,51.436-166.787-35.43-41.542-211.405,54.803-211.405,54.803,0,0-134.316-140.425-180.963-110.042-21.52,14.017-19.025,83.57-12.918,135.98"/>
    <path class="cls-5" d="M366.733,512.31c-30.65,21.631-61.688,44.43-59.482,63.348,5.998,51.458,182.682,67.517,182.682,67.517,0,0-3.797,164.299,51.308,173.677,61.427,10.454,112.147-182.529,112.147-182.529,0,0,206.7,84.928,237.935,38.549,18.579-27.588-27.476-84.884-68.319-127.866"/>
  </g>
  <g>
    <g>
      <path class="cls-11" d="M532.27,611.512c-174.076,51.793-188.97-88.023-144.053-159.108,55.591-87.979,113.578-100.513,147.679-88.221,13.587,4.898,21.501,11.854,25.232,20.066,20.222,44.503-58.727,111.189-65,111.427-3.109.118-3.98-1.217-3.98-1.217-.47-.721-.366-1.615-.242-2.175,10.792-22.609,25.536-48.992,45.681-76.619,17.371-23.822,35.01-43.433,50.999-59.217"/>
      <path class="cls-11" d="M534.648,619.504c-.545,6.762-2.371,12.339-7.343,13.748-3.118.878-7.544,2.075-10.664,2.812-46.729,11.847-102.859,12.54-139.614-23.602-44.914-45.093-39.152-121.037-7.404-171.851,7.43-11.57,15.424-23.051,24.18-33.67,22.24-26.997,49.597-51.073,83.387-62.358,24.778-8.37,53.598-8.094,77.076,4.513,20.437,10.422,32.039,29.685,31.245,52.898-.751,18.689-8.096,34.299-17.176,49.091-13.87,21.599-30.236,39.11-49.736,55.074-3.805,2.972-7.954,6.143-12.535,8.292-7.417,3.451-16.065,3.004-23.455-.993-2.138-1.201-3.98-2.608-5.759-4.493.534.693-3.443-4.001.386.382l-2.738-3.376c-3.573-5.087-4.537-12.95-3.164-18.251.347-1.598.858-3.098,1.555-4.512,6.25-13.162,12.821-26.178,19.786-39.016,18.945-35.44,42.38-69.003,72.832-95.542,0,0,1.024-.913,1.024-.913,1.187-1.146,2.459-1.501,4.378-1.438,3.896.273,8.777,2.535,12.348,4.752,5.475,3.095,9.188,7.727,11.917,12.984,1.596,2.91,3.41,7.035,3.683,9.969.148,1.845-.087,3.001-1.13,4.161l-.797.968c-5.953,7.255-13.069,16.026-18.86,23.311-24.857,31.16-49.995,62.663-67.145,98.92,0,0,1.555-4.512,1.555-4.512,1.012-3.923.039-10.056-2.681-13.9,0,0-2.737-3.376-2.737-3.376,3.891,4.472-.014-.142.592.632-1.736-1.849-3.622-3.204-5.816-4.202-4.664-2.071-8.945-1.673-13.366.161-.145.065-.491.235-.623.315.336-.208.839-.536,1.396-.93,19.655-14.977,41.975-39.003,51.082-61.659,2.769-7.51,4.524-15.133,1.15-21.58-1.693-2.669-5.139-4.836-8.46-6.353-5.971-2.821-12.481-4.179-19.133-4.371-26.787-.421-51.758,16.791-70.362,35.48-14.044,14.085-26.015,30.31-36.672,47.073-16.511,27.159-23.536,62.623-13.887,93.199,8.671,27.381,31.251,41.234,59.509,44.119,21.529,2.195,43.767-.986,64.811-6.109,4.762-1.014,8.705,2.985,12.611,8.173,3.566,4.724,5.142,10.485,4.756,15.984h0Z"/>
    </g>
    <ellipse class="cls-4" cx="539.415" cy="529.589" rx="24.14" ry="8.701" transform="translate(-204.989 398.073) rotate(-34.454)"/>
    <path class="cls-11" d="M435.308,546.021c.373-1.08,1.315-2.276,1.94-3.217,1.821-2.453,3.782-4.938,6.305-6.126,1.227-.634,2.677-.415,3.989-.567,1.517-.089,3.856-.27,5.398-.487,13.133-1.601,26.22-5.922,38.492-11.314,4.172-1.601,8.234-3.912,12.422-5.727,3.126-1.691,6.514-3.467,9.721-5.016,4.154-2.352,8.498-4.719,12.994-6.703,8.946-4.09,19.514-.153,23.604,8.793,3.108,6.8,1.567,14.543-3.274,19.66-5.292,5.565-10.969,10.838-17.235,15.338-8.381,6.378-17.696,11.497-27.327,15.727-15.13,6.196-31.61,9.977-48.29,9.412-3.341-.064-7.41-.452-10.708-.875-4.304-.447-7.699-2.77-10.147-6.654-1.093-1.777-2.04-3.954-2.613-6.06-.976-2.281-1.044-4.946.084-7.055,0,0,4.646-9.129,4.646-9.129h0Z"/>
    <path class="cls-11" d="M637.207,522.616c1.025-.57,2.522-1.119,3.612-1.592.701-.315,2.138-.895,2.856-1.132,1.68-.629,2.771-.886,3.664-1.019.853-.103,1.381.009,1.663.305,2.454,2.276,5.325,4.615,8.125,6.146,1.405.714,2.417,1.283,3.538,1.156.077-.049.126-.088.101-.18,0,0-.003-.015-.003-.015l.076-.003c2.737-.121,4.488-.621,7.26-1.502,2.157-.674,4.93-1.64,7.792-2.842,2.876-1.202,5.918-2.556,8.93-4.11,3.228-1.616,6.015-3.494,9.767-4.154,5.131-.927,9.587-.774,15.582.307,4.5.607,8.125,3.94,9.101,8.147,1.482,6.571.532,12.177-2.116,17.619-2.261,4.624-6.014,7.755-9.845,10.96-11.724,9.599-26.319,17.458-42.358,16.892-5.447-.21-10.905-1.386-15.957-3.443-12.073-4.489-20.558-14.655-26.621-25.356-1.06-2.189,1.028-4.734,2.562-6.865,0,0,1.196-1.333,1.196-1.333.509-.537,1.408-1.593,1.94-2.065.768-.716,1.47-1.609,2.397-2.099,0,0,6.739-3.823,6.739-3.823h0Z"/>
    <path class="cls-11" d="M655.832,525.609c5.358.698,11.167-3.105,13.421-7.878-.3.877.142,3.774.826,4.984,1.399,3.238,4.454,6.088,7.995,6.612.03.026.063.035.096.025.01-.002.048-.02.034-.021-.126.031-.254.041-.384.027l-.051-.005.065.008c.043.003.086,0,.129-.007.199-.084.247-.029.312-.092.022.029-.192.026-.745.399-4.496,2.885-7.981,7.481-13.421,12.095-2.368,1.983-3.598,2.856-5.235,4.088-18.781,14.042-46.343,28.817-69.764,14.276-8.079-5.096-13.724-13.013-16.788-21.793.136.372.388.957.556,1.321.357.689.279.696,1.282,2.295-9.455-3.37,19.921,20.924,33.936-4.134l.536-1.81c-.52,2.157-1.181,5.445-1.169,7.035-.197-1.096-.134-1.782-1.601-4.458-2.474-4.415-8.526-7.883-13.797-7.355-.343-.006-1.453.243-1.215.188,1.158-.446,2.344-1.128,3.709-1.991,4.477-2.92,10.039-7.676,12.482-12.171.128-.19-.232.119-.311,2.125-.02.986.131,2.457.699,4.008.549,1.551,1.512,3.04,2.417,4.002,2.017,2.131,4.722,3.498,7.563,4.061,1.121.203,2.248.272,3.374.169,1.493-.203,1.049-.278.16.155-6.388,2.984-15.114,9.332-21.353,13.392-14.594,9.413-32.189,21.747-51.557,19.857-7.516-.785-14.682-4.018-18.379-10.894-2.935-5.176-3.216-11.531-1.429-17.116,1.21-3.997,3.629-8.384,5.498-11.542,2.171-3.728,4.647-7.372,7.05-10.888,6.036-8.809,18.07-11.058,26.879-5.022,8.994,6.139,11.105,18.567,4.692,27.356,0,0-1.391,2.011-1.391,2.011-1.29,1.951-2.914,4.35-4.041,6.281-.868,1.458-1.562,2.699-1.974,3.605.029-.062.02-.056.064-.182.708-2.183.803-4.558.5-6.823-.821-6.917-6.519-13.637-13.197-15.093.164.004.775-.051,1.635-.276,11.233-3.417,23.437-12.814,34.011-19.597,9.215-5.834,19.148-12.955,31.026-13.451,18.041-.582,29.834,17.495,24.936,34.057-4.59,18.248-31.959,42.036-50.943,41.924-10.333.129-19.399-6.875-22.282-16.567-2.682-8.598-1.033-17.684.871-25.818.11-.504.28-1.37.536-1.81,14.029-25.098,43.436-.764,33.992-4.115,1.017,1.623.952,1.654,1.321,2.368.447.934.807,2.014,1.183,2.973.182.455.603,1.188.827,1.413.254.228-.06.004.052.076,2.002.427,5.471-.562,8.276-1.669,6.601-2.534,15.519-8.48,21.506-13.349,5.213-4.736,10.688-11.12,18.317-15.767,4.22-2.704,10.236-5.076,15.66-5.685,2.911-.357,6.076-.387,8.996-.104,11.448,1.085,21.537,8.866,24.339,20.221,2.419,9.515-.427,19.595-5.151,27.228-7.338,11.918-18.922,20.597-32.565,24.088-5.56,1.399-11.49,1.804-17.213,1.2-25.538-3.745-21.494-40.313,4.193-38.444h0Z"/>
    <g>
      <g>
        <path class="cls-3" d="M762.54,437.867s-18.851,103.571-10.259,107.867"/>
        <path class="cls-1" d="M752.281,545.734c86.47,4.983,113.507-151.029,7.328-86.763"/>
        <line class="cls-2" x1="734.613" y1="447.711" x2="715.3" y2="558.206"/>
      </g>
      <g>
        <path class="cls-9" d="M762.54,437.867s-18.851,103.571-10.259,107.867"/>
        <path class="cls-9" d="M752.281,545.734c86.47,4.983,113.507-151.029,7.328-86.763"/>
        <line class="cls-9" x1="734.613" y1="447.711" x2="715.3" y2="558.206"/>
      </g>
    </g>
  </g>
  <g>
    <path class="cls-13" d="M531.148,613.495c-2.448,3.185-5.618,4.845-9.246,5.831-3.003.812-7.233,1.883-10.23,2.557-13.782,3.216-27.778,5.451-41.955,6.088-56.671,3.208-102.125-24.359-109.867-83.293-4.421-35.866,5.302-72.786,25.756-102.419,6.737-10.219,14.181-20.263,22.073-29.638,5.682-6.604,11.882-13.353,18.262-19.292,28.171-27.009,69.501-48.55,109.051-35.313,20.528,6.844,34.182,20.627,33.518,43.297-1.575,33.787-32.655,68.069-56.968,89.274-4.508,3.655-8.662,7.418-14.122,10.032-.822.374-2.085.659-2.998.676-4.419.194-7.64-1.821-8.96-3.874-1.599-2.562-1.65-5.432-.621-7.895,3.031-6.383,6.187-12.708,9.484-18.959,16.424-31.294,35.799-61.188,59.001-87.909,4.624-5.356,9.389-10.589,14.31-15.673,2.455-2.545,4.927-5.074,7.439-7.562,2.635-2.929,6.089-4.962,10.249-4.711,3.381.355,3.278,3.919,2.64,6.369-.618,2.754-2.233,4.883-4.169,6.802-2.361,2.512-4.68,5.063-6.982,7.628-32.078,35.962-60.604,75.465-81.406,119.059,0,0,.432-1.253.432-1.253.089-.632-.012-1.428-.569-2.292,0,0-.76-.938-.76-.938,1.104,1.275.045.022.239.266-.257-.282-.654-.594-.942-.713-.183-.078-.216-.074-.175-.071.034.009.157.021.324.02h.131c.049,0,.056-.003-.156.004-.242.029-.621.073-.861.154-.035.006-.135.056-.11.042.13-.047.815-.417,1.388-.79,25.5-17.793,76.842-71.841,58.476-104.739-4.293-7.34-13.342-12.297-21.65-15.064-9-3.065-18.719-3.874-28.175-2.9-37.515,4.135-67.997,31.702-90.844,60.061-5.721,7.287-11.299,14.892-16.386,22.627-3.574,5.473-7.368,11.273-10.207,17.158-19.151,38.911-22.933,93.474,9.089,126.62,27.023,26.955,69.252,27.071,104.639,20.493,6.557-1.209,13.352-2.78,19.828-4.458,3.602-.902,7.031-1.144,10.768.281,1.755.654,2.398,2.936,1.262,4.417h0Z"/>
    <g>
      <ellipse class="cls-10" cx="523.614" cy="529.352" rx="24.14" ry="8.701" transform="translate(-207.626 389.092) rotate(-34.454)"/>
      <path class="cls-13" d="M417.646,551.222c7.002-2.422,13.069-.693,19.894-1.271,4.299-.16,8.831-.779,13.084-1.542,1.857-.232,4.629-.96,6.48-1.375,1.876-.374,4.558-1.157,6.406-1.76,6.155-1.815,12.902-4.406,18.7-7.174,3.573-1.475,8.555-4.264,12.006-6.082,1.733-.863,4.156-2.442,5.824-3.436,3.388-1.977,8.252-5.082,11.411-7.365,1.976-1.337,3.949-2.685,5.952-3.997,2.241-1.473,5.251-.851,6.724,1.39,1.374,2.09.906,4.864-.978,6.421-5.293,4.368-11.31,9.231-17.155,12.955-1.74,1.155-4.235,2.942-6.054,3.901-2.298,1.266-7.214,4.162-9.465,5.29-3.209,1.479-6.658,3.178-9.888,4.555-14.622,5.929-30.535,9.71-46.444,9.251-3.708-.236-7.532-.216-11.091-1.441-2.556-.858-9.84-4.255-6.69-7.655.343-.35.84-.522,1.286-.665h0Z"/>
      <path class="cls-13" d="M618.398,524.224c3.23-.143,4.515.861,6.073,2.958,1.247,1.488,2.546,2.926,3.896,4.275,3.371,3.309,6.693,6.118,10.752,7.78,5.602,2.019,11.723,1.896,17.446.175,7.164-2.145,14.196-5.819,20.61-9.896,6.742-4.42,13.1-9.323,20.491-12.819,1.394-.755,3.102.78,2.503,2.24-3.166,8.419-9.723,14.524-16.818,19.607-9.276,6.598-20.425,12.935-32.482,13.625-15.255.661-25.411-7.607-33.705-19.374-1.709-2.203-2.5-4.056-1.047-7.173.427-.915,1.336-1.412,2.282-1.4h0Z"/>
      <path class="cls-13" d="M638.528,539.31c8.78,1.074,17.84-3.202,23.588-9.898,2.652-3.159,4.923-6.895,5.113-10.793-.076-1.87-.226-2.346-1.941-2.97,0,0-.307-.12-.307-.12l-.398-.062c-.271-.038-.511-.116-.806-.144l-.93-.047c-.157-.008-.306-.028-.469-.029l-.513.031c-6.009.155-10.273,4.223-14.71,8.297-2.455,2.322-4.901,4.898-7.854,7.476-3.065,2.539-5.761,4.456-8.907,6.667-12.417,8.285-27.8,17.4-43.555,13.257-8.438-2.337-14.662-9.548-17.337-17.638.12.242.099.284.426.802-2.607-.936,5.468,5.74,9.324-1.146l.148-.498c-.929,4.471-2.185,8.909-1.228,12.913-.009.004-.086-.144-.243-.255-.115-.117-.478-.308-.662-.354-.286-.067.045.026.551-.08,2.635-.482,5.906-2.29,8.389-3.873,5.712-3.699,11.292-8.616,15.261-14.079,1.512-2.194,4.764-7.159,2.588-9.195,0,0-.111-.096-.111-.096-.036-.035-.086-.082-.045-.037.081.075.21.112.236.134-1.142-.059-2.819.497-4.516,1.238-8.255,3.844-15.553,9.38-23.51,14.548-12.243,7.765-30.688,21.239-46.08,16.748-3.325-.83-5.203-3.99-4.682-7.292.681-4.014,2.781-7.167,4.603-10.433,2.064-3.454,4.182-6.667,6.467-9.944l8.682,6.142c-3.021,4.38-6.19,9.085-8.499,13.799-.332.696-.632,1.45-.709,1.769-.013.055-.036.138-.01.018.116-1.532-.762-2.958-2.045-3.834-.271-.156-.504-.298-.794-.399-.104-.039-.192-.065-.145-.051l.106.031.211.064c5.556,1.604,12.556-1.411,18.006-4.015,6.438-3.196,12.735-7.251,19.034-11.421,6.336-4.172,12.565-8.585,19.564-12.591,5.85-3.142,13.786-7.584,20.423-2.953,12.179,9.909-.086,25.636-8.595,33.199-6.317,5.571-18.234,14.944-27.285,12.714-10.31-3.51-6.811-17.771-5.022-25.394,3.87-6.925,11.977-.209,9.381-1.126.519.854.65,1.359.969,2.224,8.714,22.307,35.842,5.237,48.894-4.49,7.436-5.209,12.328-12.491,20.418-17.462,4.064-2.622,9.283-4.178,14.211-3.917,4.697.068,9.607,1.923,12.325,5.928,3.133,4.741,2.571,10.189.975,14.909-4.448,11.758-14.786,20.35-26.786,23.467-4.009.996-8.226,1.27-12.338.834l1.14-10.574h0Z"/>
    </g>
  </g>
  <g>
    <path class="cls-7" d="M764.758,438.114s-18.851,103.571-10.259,107.867"/>
    <path class="cls-7" d="M754.498,545.981c86.47,4.983,113.507-151.029,7.328-86.763"/>
    <line class="cls-8" x1="736.831" y1="447.957" x2="717.517" y2="558.453"/>
  </g>
  <path class="cls-6" d="M790.352,484.653s-7.476-7.509-9.986-5.802c-2.074,1.411.163,11.205.163,11.205,0,0-8.728,4.356-8.38,6.903.383,2.799,10.033,3.482,10.033,3.482,0,0,.034,10.225,3.049,10.676,3.36.503,5.853-11.337,5.853-11.337,0,0,11.361,4.405,13.014,1.842,1.58-2.45-6.673-9.565-6.673-9.565,0,0,6.301-8.474,4.393-10.622-1.977-2.226-11.465,3.218-11.465,3.218Z"/>
</svg>