<?xml version="1.0" encoding="UTF-8"?>
<svg id="Layer_1" xmlns="http://www.w3.org/2000/svg" viewBox="0 0 593.284 599.338">
  <defs>
    <style>
      .cls-1 {
        fill: #badd7f;
        stroke: #badd7f;
        stroke-linecap: round;
        stroke-linejoin: round;
        stroke-width: 74.175px;
      }
    </style>
  </defs>
  <path class="cls-1" d="M331.065,134.821S210.393,13.611,169.881,41.161c-33.48,22.768,2.632,180.867,2.632,180.867,0,0-140.892,70.312-135.261,111.432,6.184,45.181,161.948,56.204,161.948,56.204,0,0,.552,165.061,49.214,172.334,54.237,8.122,94.466-183.004,94.466-183.004,0,0,183.4,71.104,210.073,29.73,25.499-39.55-107.724-154.406-107.724-154.406,0,0,101.711-136.789,70.906-171.471-31.909-35.927-185.084,51.945-185.084,51.945l.014.028Z"/>
</svg>