<?xml version="1.0" encoding="UTF-8"?>
<svg id="Layer_1" data-name="Layer 1" xmlns="http://www.w3.org/2000/svg" viewBox="0 0 593.284 599.338">
  <defs>
    <style>
      .cls-1 {
        fill: #046e8f;
        stroke: #046e8f;
        stroke-linecap: round;
        stroke-linejoin: round;
        stroke-width: 66.744px;
      }
    </style>
  </defs>
  <path class="cls-1" d="M322.613,165.643s-108.582-109.067-145.036-84.277c-30.126,20.487,2.368,162.747,2.368,162.747,0,0-126.777,63.268-121.71,100.268,5.564,40.655,145.723,50.573,145.723,50.573,0,0,.497,148.524,44.283,155.069,48.803,7.308,85.002-164.67,85.002-164.67,0,0,165.026,63.98,189.027,26.751,22.944-35.588-96.932-138.937-96.932-138.937,0,0,91.521-123.085,63.802-154.292-28.712-32.328-166.541,46.741-166.541,46.741l.013.025h0Z"/>
</svg>