<?xml version="1.0" encoding="UTF-8"?>
<svg id="Layer_1" xmlns="http://www.w3.org/2000/svg" version="1.1" viewBox="0 0 593.3 599.3">
  <!-- Generator: Adobe Illustrator 29.1.0, SVG Export Plug-In . SVG Version: 2.1.0 Build 142)  -->
  <defs>
    <style>
      .st0 {
        fill: #badd7f;
        stroke: #badd7f;
        stroke-linecap: round;
        stroke-linejoin: round;
        stroke-width: 66.7px;
      }
    </style>
  </defs>
  <path class="st0" d="M322.6,165.6s-108.6-109.1-145-84.3c-30.1,20.5,2.4,162.7,2.4,162.7,0,0-126.8,63.3-121.7,100.3,5.6,40.7,145.7,50.6,145.7,50.6,0,0,.5,148.5,44.3,155.1,48.8,7.3,85-164.7,85-164.7,0,0,165,64,189,26.8,22.9-35.6-96.9-138.9-96.9-138.9,0,0,91.5-123.1,63.8-154.3-28.7-32.3-166.5,46.7-166.5,46.7h0s0,0,0,0Z"/>
</svg>